P3
16 16
255
138 153 164 
138 153 164 138 153 164 138 153 164 138 153 164 138 153 164 138 153 164 138 153 164 196 196 197 196 196 197 196 196 197 196 196 197 196 196 197 196 196 197 196 196 197 196 196 197 138 153 164 
138 153 164 138 153 164 138 153 164 138 153 164 138 153 164 138 153 164 138 153 164 196 196 197 196 196 197 196 196 197 196 196 197 196 196 197 196 196 197 196 196 197 196 196 197 138 153 164 
138 153 164 138 153 164 138 153 164 138 153 164 138 153 164 138 153 164 138 153 164 196 196 197 196 196 197 196 196 197 196 196 197 196 196 197 196 196 197 196 196 197 196 196 197 138 153 164 
138 153 164 138 153 164 138 153 164 138 153 164 138 153 164 138 153 164 138 153 164 196 196 197 196 196 197 196 196 197 196 196 197 196 196 197 196 196 197 196 196 197 196 196 197 138 153 164 
138 153 164 138 153 164 138 153 164 138 153 164 138 153 164 138 153 164 138 153 164 196 196 197 196 196 197 196 196 197 196 196 197 196 196 197 196 196 197 196 196 197 196 196 197 138 153 164 
138 153 164 138 153 164 138 153 164 138 153 164 138 153 164 138 153 164 138 153 164 196 196 197 196 196 197 196 196 197 196 196 197 196 196 197 196 196 197 196 196 197 196 196 197 138 153 164 
138 153 164 138 153 164 138 153 164 138 153 164 138 153 164 138 153 164 138 153 164 196 196 197 196 196 197 196 196 197 196 196 197 196 196 197 196 196 197 196 196 197 196 196 197 138 153 164 
138 153 164 138 153 164 138 153 164 138 153 164 138 153 164 138 153 164 138 153 164 196 196 197 196 196 197 196 196 197 196 196 197 196 196 197 196 196 197 196 196 197 196 196 197 138 143 159 
138 143 159 138 143 159 138 143 159 138 143 159 138 143 159 138 143 159 138 143 159 159 155 160 159 155 160 159 155 160 159 155 160 159 155 160 159 155 160 159 155 160 159 155 160 138 143 159 
138 143 159 138 143 159 138 143 159 138 143 159 138 143 159 138 143 159 138 143 159 159 155 160 159 155 160 159 155 160 159 155 160 159 155 160 159 155 160 159 155 160 159 155 160 138 143 159 
138 143 159 138 143 159 138 143 159 138 143 159 138 143 159 138 143 159 138 143 159 159 155 160 159 155 160 159 155 160 159 155 160 159 155 160 159 155 160 159 155 160 159 155 160 138 143 159 
138 143 159 138 143 159 138 143 159 138 143 159 138 143 159 138 143 159 138 143 159 159 155 160 159 155 160 159 155 160 159 155 160 159 155 160 159 155 160 159 155 160 159 155 160 138 143 159 
138 143 159 138 143 159 138 143 159 138 143 159 138 143 159 138 143 159 138 143 159 159 155 160 159 155 160 159 155 160 159 155 160 159 155 160 159 155 160 159 155 160 159 155 160 138 143 159 
138 143 159 138 143 159 138 143 159 138 143 159 138 143 159 138 143 159 138 143 159 159 155 160 159 155 160 159 155 160 159 155 160 159 155 160 159 155 160 159 155 160 159 155 160 138 143 159 
138 143 159 138 143 159 138 143 159 138 143 159 138 143 159 138 143 159 138 143 159 159 155 160 159 155 160 159 155 160 159 155 160 159 155 160 159 155 160 159 155 160 159 155 160 138 143 159 
138 143 159 138 143 159 138 143 159 138 143 159 138 143 159 138 143 159 138 143 159 159 155 160 159 155 160 159 155 160 159 155 160 159 155 160 159 155 160 159 155 160 159 155 160 